<svg id="Layer_1" data-name="Layer 1" xmlns="http://www.w3.org/2000/svg" viewBox="0 0 2711.76 1080"><title>Artboard 11</title><path d="M1694.7,606.9s12.83-7.93,17.32-11.17q58.63-42.45,119.71-81.29c68.91-43.77,140.34-83,214.9-116.24a1048.79,1048.79,0,0,1,134-49,801.77,801.77,0,0,1,134-26.73,538.73,538.73,0,0,1,116.69-.57c23.12,2.41,45.94,7.71,68.86,11.88,3.51.64,7.3,1.7,7.44,7.74,0,1.16-1.5,1.79-7.23.71-15.47-2.24-30.9-4.74-46.35-7.09a483.55,483.55,0,0,0-121.45-3,712,712,0,0,0-135,26.47,1132.26,1132.26,0,0,0-122,44.07,1652.37,1652.37,0,0,0-154.8,76.52c-26.1,14.65-51.54,30.53-76.79,46.61-31.72,20.19-63.26,40.69-94.28,61.93-22,15-42.9,31.53-64.28,47.39-3.44,2.55-5.18,4-11.22,10.11,11.35,0,26.66-.68,37.77,0,9.55.62,19.32,1.31,28.58,3.66,16.78,4.26,24.66,17.49,21.57,34.46-3.52,19.32-8,38.45-11.64,57.76-2.13,11.42-4.35,23-4.7,34.54a54.13,54.13,0,0,0,19.43,43.94c8,6.8,18.28,8.48,28.59,7.27,16.67-1.94,30.47-9.15,39.45-24,1.89-3.14,3.74-6.3,5.65-9.43,1-1.7,2.17-3.35,3.23-5,2.4-3.8,5.87-4.21,9.59-2.63,4.06,1.72,3.6,5.15,2.48,8.49-4.38,13-12.48,24.4-23.3,31.53-20,13.19-39.56,15.67-61.36,10.35-23.85-5.82-40-23.93-42.64-49.6a145.8,145.8,0,0,1,1.44-37.71c3-18.69,7.93-37.07,12-55.6.78-3.57,1.41-7.19,1.86-10.82C1744,668.26,1737,658,1723,657.55c-17.24-.62-34.55.67-51.83,1.35-2.56.1-5.59.37-5.59.37s-3.76,6.53-5.1,9c-8.85,16.41-17.42,33-26.53,49.23-18.7,33.39-36.84,67.15-56.74,99.83-29.07,47.76-59.47,94.72-89.36,142-2.85,4.5-6.11,8.73-9.19,13.07-4.8,6.75-8.15,10-16.06,11-8.83,1-18.53-4-19.42-13.19a66.36,66.36,0,0,1,2-16.87c9.6-42.68,22.57-84.26,42.28-123.44,18-35.89,40.29-68.82,68.4-97.82,26.89-27.76,54.49-54.67,83.95-79.74,8.12-6.9,14.72-16.49,19.67-26.07,23.55-45.54,46.87-91.22,69.1-137.42,15.29-31.76,28.88-64.35,42.78-96.77a120.51,120.51,0,0,0,9.19-39.72c.14-21.06-8-27.88-27-26.4-15.75,1.23-30.75,5.42-45.55,10.65-33.35,11.76-65.29,26.7-96.94,42.35-46.59,23-92,48.21-135.45,76.69-30.28,19.86-60.37,40.35-86,66.38a119.06,119.06,0,0,0-14.29,17.89c-4.23,6.42-1.89,11.67,5.59,13.45a69.7,69.7,0,0,0,13.85,1.53c33.33,1,66.53-.81,99.71-4,14.83-1.43,29.87-3.71,45-4.36,0,5.57-3.46,8.08-6.25,8.41-24.13,2.84-48.2,6.67-72.41,8-27.49,2.71-53.2,3.69-79.09,1.47-7.42-1.06-12.89-1.74-18.62-4-9.85-4.28-13.47-11.49-9.63-20.94,2.59-6.37,7.64-12.79,12.3-17.73a301.52,301.52,0,0,1,29.81-27.94c27.29-22,57.32-39.85,87.27-57.9,50.2-30.25,101.77-58,154.26-83.95,27.45-13.59,55.37-26.22,85.25-33.77,16.87-4.27,33.84-7.26,51.36-4.59,17.14,2.61,25.83,10.77,27.79,28.95,2.14,19.06-3.08,37.49-9.67,55.11-6.17,16.51-12.51,33-20.09,48.94-23.76,49.89-48.13,99.48-72.26,149.19-1.13,2.34-2.13,4.75-3.19,7.13C1695.33,605.59,1694.7,606.9,1694.7,606.9Zm-70.07,80.79a344.75,344.75,0,0,0-92.9,98.41c-30.46,48.44-49.6,101.35-61.09,157.42a1.37,1.37,0,0,0,1.91,1.45c1.72-1,3.7-3.69,4.7-5.22C1530.44,858.21,1580.74,775,1624.63,687.69Z"/><path d="M877.54,604.24c8.87,0,18.08,0,25.34-.17,51.64-1,103.15,2.12,154.7,4.37,19.94.87,40,.16,59.92.55,26.28.52,52.55,1.39,78.83,2.17,2.31.07,4.91,0,6.82,1.09s3.3,3.43,4.91,5.23a41.68,41.68,0,0,1-5.47,3.31,7.77,7.77,0,0,1-4,.09c-32.07-5-64.46-3.56-96.7-4.25-55.59-1.19-111.19-1.33-166.79-1.82-18-.16-35.95.13-53.93-.14-4.17,0-7.91-.09-7.91-.09s-2,3.7-3.65,7.2c-11.62,28-23.52,55.79-35.38,83.64-9.56,22.45-15.71,45.93-21.49,69.56-2.56,10.45-2.62,20.2,2.45,30,3.84,7.45,1.29,10.56-6.94,9.58-8-1-12.62-4.07-12.94-12.49-.49-12.54-.71-25.54,2-37.65a399.39,399.39,0,0,1,16.73-54.28c11-28.91,23.3-57.33,35-86,.84-2.06,1.95-5,3.56-8.3-2.91,0-6.62-.08-8.76-.06-11,.1-22,.35-33,.59-4,0-5.56,0-5.56,0s-2.64,2.64-4.19,4.6c-19.16,25.31-43,53.49-64.49,78-20.62,23.46-42.52,45.89-65,67.59a630.71,630.71,0,0,1-53.12,45.33c-25.32,19.52-51.94,37.5-81,50.82-45.4,20.78-93.07,32.16-143.45,28.31-43.21-3.31-83.93-14.85-120-39.54-17.46-11.94-32.38-26.5-40.55-46.88-11.18-27.89-3.77-52.33,13.76-74.58,10.58-13.41,24-23.92,38.61-32.82,28.88-17.58,59.87-30.31,92-40.59a784.46,784.46,0,0,1,143.18-31.29c39-4.82,78.14-7.86,117.13-12.47,45.43-5.36,90.93-6,136.46-8.19,9.69-.27,16.46-1.17,16.46-1.17s5.23-6.78,8.21-11.17c9.77-15.83,20.53-28.91,31-44.34,23.89-35.26,47.76-70.54,71.16-106.12,18.83-28.64,37.45-57.44,55.3-86.7,23.38-38.36,45.87-77.26,68.84-115.86a63.23,63.23,0,0,1,8.7-12c3-3.13,7.29-5.05,11.75-2.08s2.59,7.1,1.69,10.88a34.8,34.8,0,0,1-2.71,6.41q-42,89.51-83.93,179Q929,490.36,897.55,559.39c-5.55,12.09-12,23.45-16.2,36.06C880.56,597.78,879.51,599.43,877.54,604.24Zm-97.48,13.22c-7,0-16.93,0-22.91,0-62.32.48-124.34,5.85-186.23,12.5-26.13,2.8-52.18,6.56-78.11,10.84-32.86,5.41-65.06,13.78-97,23.18-35.94,10.58-70.53,24-101.82,45.09-14.81,10-27.93,21.71-37.17,37.08-12.9,21.48-13.9,43.13.07,64.94,9.38,14.65,21.93,25.78,36.15,35.29,21,14.05,44,23.05,68.7,28.57,50.79,11.35,99.92,6.41,147.64-13.65,27.72-11.66,53.15-27.42,77.71-44.72a623.08,623.08,0,0,0,97.82-85c29.42-31.65,56.32-65.65,84.2-98.73C772.41,628.93,772.63,628.24,780.06,617.46ZM940.78,417.37h0a1.08,1.08,0,0,0-1,0,6.29,6.29,0,0,0-2,2.14c-15.79,24.27-31.21,48.79-47.36,72.81-22.12,32.87-44.81,65.35-67.18,98.05-2.7,3.94-5.16,7.21-9.08,13.18,12.78,0,25.23-.13,36.42,0,3.11,0,8.85,0,8.85,0s2.43-5.38,3.56-8.09q4.85-11.51,9.91-22.91,32.77-73.38,65.59-146.76c1.07-2.4,1.84-4.93,2.71-7.41A.81.81,0,0,0,940.78,417.37Z"/><path d="M1837,657.51c5.18-3.49,10.75-7.41,15.51-10.51,6.83-4.86,13.94-6.17,21.76-5.48,6.94.61,10.44,4,10.3,11-.18,9.3-1.36,18.58-2.08,27.86-.19,2.48-.34,5-.51,7.82a3.19,3.19,0,0,0,3.66,3.33c12.19-1.83,19.58-5.92,27.18-13.23,6-5.74,11.75-11.8,18.36-16.72,8.83-6.57,18.81-8.77,30.16-8.71,5.67.17,11.05,1.61,14.47,7.44,3,5.71.39,12-3.6,17.63-4.28,5.29-9.86,9.85-21.85,12.39a54.7,54.7,0,0,1-17.06.67,10,10,0,0,1-5.66-2.9s-4.3,6-2.64,10.9c2.4,7,7.91,9.45,14.6,10.12a49.5,49.5,0,0,0,32.37-7.89c10.37-6.66,19.71-14.08,26-25.5,10.55-19.22,28.55-27,49.73-28.32,5.93-.37,11.91-.06,18.17-.06,8.46-14.81,17.18-29.69,25.53-44.78,12.57-22.71,24.78-45.62,37.4-68.3a24.14,24.14,0,0,1,7.94-8.71c2.36-1.43,6.34-1.36,9.19-.54,3.76,1.09,3.15,4.79,2,7.62-3.74,9.22-7.73,18.35-11.63,27.51Q2112,617,2087.79,674a155.35,155.35,0,0,0-6.38,17.69c-.6,2.06-1.49,5.35.29,7,4.16,3.55,11.13-1.54,15.08-4.71a143.23,143.23,0,0,0,18.71-17.72c12.4-14.36,27.24-23.16,46.65-23,6.25.05,12.3,1,15.09,7.47,2.2,5.09.29,12-3.92,17.33-5.11,6.06-9.21,9.56-21.39,12.54a39.7,39.7,0,0,1-14.82.2c-3.11-.44-7.08-1.49-7.08-1.49s-4.79,3.65-4.48,8c.6,4.74,3,7.48,7.23,9.37a31.73,31.73,0,0,0,21.52,1.43c19.51-5.17,34.84-16.23,45.45-33.49,4-6.49,7.32-13.39,11.24-19.93a32.11,32.11,0,0,1,3.71-5.1c2.86-3.17,6.21-5.55,11.49-2.3a16,16,0,0,1,5.91,8.85c10.48-3.82,20.95-8.43,31.46-4.95A9.72,9.72,0,0,1,2270,658c2.13,8.56-5.12,17-14.42,19.46.32-3.17.63-4.41-.15-8.1a16,16,0,0,0-1.87-4.23,4.41,4.41,0,0,0-3.8-1.94,24.14,24.14,0,0,0-16.54,6.8c-9.25,9-17.91,18.66-26.5,28.33-3.74,4.21-6.5,9.27-10,13.68-6.48,8.07-12.12,8-19.85-.31a87.2,87.2,0,0,1-42.43,7.68c-11.86-.88-21.93-6-27.73-17.82a23.24,23.24,0,0,1-6,5.57c-8.16,5.61-15.09,7.5-22.57,7.15-8.11-.72-13.49-6.73-14.36-15.27-.33-3.22.26-6.67.64-10s1.13-6.69,1.57-10.09c.39-2.59-.59-2.47-2.07-.91-2.71,3.16-5.6,6.18-8.12,9.49a118.44,118.44,0,0,1-27.42,26c-8.55,5.9-18.32,8.07-27.74,5.65-7.56-2-11.16-6.48-12.28-14.41a42.18,42.18,0,0,1-8.91,5.25,93,93,0,0,1-49.1,9c-14.13-1.16-22.37-9-24.56-23.74-8.39,5.6-13.24,7.81-20,9.67a44.86,44.86,0,0,1-9.92,1.87c-9.24.9-13.2-2.45-12.79-11.71.38-8.6,1.94-17.15,3-25.72.42-3.37,1-7.24,1.68-12.25a1.64,1.64,0,0,0-2.35-1.69,93,93,0,0,0-10,6.58,185.34,185.34,0,0,0-39.19,39.6c-2.77,3.75-5.48,7.54-8.35,11.21-3.78,4.83-8.5,7.41-15.16,5.62-3-5.12-1-10.17,1.16-15,8.49-18.45,17.23-36.79,25.76-55.22,11.46-24.76,22.78-49.6,34.25-74.36,5.88-12.68,11.8-25.34,18-37.86a44.55,44.55,0,0,1,7.09-10.6c1.53-1.65,5-3.14,6.93-2.75,3.55.71,4.6,4.05,3.76,7.62a57.62,57.62,0,0,1-3.34,10.36q-21.08,47.43-42.47,94.72c-2.46,5.44-5.43,10.65-8,16a48.53,48.53,0,0,0-2.07,5.24C1833.28,658.45,1835.11,659,1837,657.51Zm216.14,2.36c-14.52-3.53-21.58.2-30,7.65-11.69,10.32-23,31.59-16.72,39,4.13,4.3,11,.38,15-3.18,12.36-10.57,20.13-20.43,30.29-34.49C2053.3,667,2057.35,660.61,2053.15,659.87ZM1934.78,678.7c3.87,2.42,10.2,3.79,19.6.23a8.52,8.52,0,0,0,3.74-2.68,6.72,6.72,0,0,0,.22-7.73c-1.63-2-2.9-2.83-6.67-2.53C1944.39,666.5,1938.52,671.13,1934.78,678.7Zm225.28-11.31c-4.87-7.73-18.92.8-22,9.84C2149.59,682.83,2165.41,676.3,2160.06,667.39Z"/><path d="M1066.29,711.46c-3-5.82,15.14-24.45,12.25-29.22-.59-.88-3.83,1.11-4.78,1.84q-19,14.5-38,29.15a49.66,49.66,0,0,1-3.91,3.1c-8.41,5.24-13.82,2.71-15.73-7.24-.06-.35-.09-.6-.16-1.09a1,1,0,0,0-1.33-.82c-2.25.84-5.07,1.89-7.15,2.63-2.82,1-5.58,2.39-8.48,2.86-19.75,3.22-24.09-1.87-19-19.53,1.34-4.65,2.41-9.86,3.76-15.81a1.31,1.31,0,0,0-1.85-1.46,26,26,0,0,0-4.65,2.85c-12.6,9.79-25.25,19.52-37.59,29.64-6.76,5.54-18.08,11.07-22.56,4.76-3.52-5,8.27-18.22,11-29.84a1.14,1.14,0,0,0-1.81-1.15c-14.44,11.12-27.7,21.19-40.76,31.52a22.87,22.87,0,0,1-9.28,4.86,7.52,7.52,0,0,1-8.69-9.62,40.88,40.88,0,0,1,2.14-5.14c7.52-15.92,15.51-31.62,23.33-47.4.27-.56.62-1.16.92-1.71,2.36-4.19,4.6-7.48,9.59-5.31,4.19,1.83,3.68,6,2.84,9.63-1,4.49-2.61,8.87-3.92,13.3-.94,3.15-1.83,6.31-2.74,9.47a1,1,0,0,0,1.41,1.14c3.59-1.91,7.25-3.68,10.76-5.71,7.78-4.49,15.46-9.14,23.24-13.63a29,29,0,0,1,5.51-2.29c11.2-3.61,14.51-1,14.16,10.9,0,.92-.11,2.37-.09,3.91a1.24,1.24,0,0,0,1.8,1.09c1.63-.81,3.11-1.78,4.23-2.45,8.27-5,16.24-10.47,24.78-14.88a43.12,43.12,0,0,1,15.07-4.45c5.68-.6,8.21,2.75,7.15,8.29-.68,3.55-2.45,6.87-3.51,10.37-2.17,7.15-7.68,19.12-5.4,23.2.9,1.67,7.78-.92,10.72-2.47,10.37-5.49,19.85-12.21,25.52-23,2.63-5,5-10.1,7.62-15.12a12.53,12.53,0,0,1,2.93-4.34,7.46,7.46,0,0,1,7.8-1.22c2,.76,3.74,4.08,3.34,6.13-.73,4.85-2.71,9.49-4.12,14.24-.86,2.91-1.71,6.2-2.9,10.55a1.14,1.14,0,0,0,1.39,1.4,23.13,23.13,0,0,0,6.31-3c6.22-3.86,12-8.51,18.46-11.84a84.46,84.46,0,0,1,20.25-7.71c7.28-1.59,9.47,1.23,9.07,8.73-.1,1.73-.14,3.14-.19,6.16a1.22,1.22,0,0,0,1.85,1.06c8.07-4.89,14.85-9.25,21.8-12.9,6.1-3.21,12.46-6.56,19.11-8,9.14-2,11.86,1.52,9.25,10.41-2.07,7-5,13.77-7.19,20.73-1,3-2.88,8.41-1.81,9.7,3.33,4.2,13.59-1.74,18.43-5.64a211.48,211.48,0,0,0,16.83-15.57c12.63-12.66,26.33-23.57,44.37-27.3,3.84-.8,8.13-1.52,11.75-.55,3.08.82,6.71,3.63,7.85,6.46s1.72,7.61-1.23,10.11c-1.78,1.45-5.9,1-8.1-.28-6.18-3.51-11.53-1.87-16.91,1.23a74.92,74.92,0,0,0-30.38,32.11c-.53,1.07-1.23,3.72-.5,4.49,3,4.22,13-3.36,17.56-7.07,5.52-4.45,7.55-7,13.25-13.26,5.51-6,11.43-9.34,19.46-8.67a4.88,4.88,0,0,1,4.37,5.48l-2.46,20.09a4.2,4.2,0,0,0,3,4.52,12.08,12.08,0,0,0,12.33-2.58c5.58-5.08,11.07-10.57,15.25-16.79,5.53-8.26,9.74-17.41,14.56-26.16a42.77,42.77,0,0,1,3.63-5.95c6-7.66,11.17-8.08,16.93-.22a16.78,16.78,0,0,1,1.81,3.59.37.37,0,0,0,.44.24c4.73-1.11,9.38-2.5,14.14-3.18a67.07,67.07,0,0,1,14.82-.82c7.35.6,8.93,3.1,8.13,10.56-2,9.81-6,13.55-13.36,16.46-.77-4.91-.92-8.84-3.49-12.39a5.26,5.26,0,0,0-5-2.32c-4.88.46-9.07,3.27-13.18,5.94-11.12,7.21-18.66,17.87-26.5,28.21-3.82,5-7.61,10.1-11.45,15.12-3.66,4.78-9.69,8.17-14.15,4.34-1.57-1.24-1.84-4.12-1.88-5.49a.38.38,0,0,0-.59-.3,23.65,23.65,0,0,1-9.87,3.78c-14.38,1.84-17.46-1.25-23.21-15.33-.89-2-5.33,2.31-6.93,4.07-8.57,9.5-19.44,13.56-31.92,13.94-8.66.26-16.77-.57-18.72-10.84a.38.38,0,0,0-.49-.29c-6.53,2.23-12.51,4.58-18.68,6.2a30.14,30.14,0,0,1-10.88.59c-6.68-.77-10-6.41-8.43-12.95,1.8-7.41,3.41-14.86,5-22.31.3-1.42.22-3.34-1.52-2.58a42.88,42.88,0,0,0-6.43,4q-18.79,14.8-37.39,29.88C1081.6,714.74,1070.64,719,1066.29,711.46Z"/></svg>